<svg width="1024" height="1024" viewBox="0 0 1024 1024" fill="none" xmlns="http://www.w3.org/2000/svg">
<rect width="1024" height="1024" fill="#141416"/>
<path d="M385.222 348.575L354 380.15V486.695V593.063L385.752 624.814L417.503 656.566V486.695C417.503 393.38 417.327 317 416.974 317C416.798 317 402.509 331.288 385.222 348.575Z" fill="white"/>
<path d="M548.568 346.46L518.933 374.331L563.915 375.213L608.896 376.095L609.425 517.213L609.778 658.332L639.766 628.344L669.753 598.356V458.649V318.766H624.066H578.203L548.568 346.46Z" fill="white"/>
<path d="M443.078 682.143L467.774 706.839H514.52H561.265L584.726 683.378C597.427 670.501 608.01 659.388 608.01 658.682C608.01 657.977 565.322 657.447 513.285 657.624H418.559L443.078 682.143Z" fill="white"/>
</svg>
