<svg width="516" height="516" viewBox="0 0 516 516" fill="none" xmlns="http://www.w3.org/2000/svg">
<rect width="516" height="516" fill="#404258"/>
<path d="M162.6 134.866L139 158.733V239.266V319.667L163 343.667L187 367.667V239.266C187 168.733 186.867 111 186.6 111C186.467 111 175.667 121.8 162.6 134.866Z" fill="white"/>
<path d="M286.067 133.267L263.667 154.333L297.667 155L331.667 155.667L332.067 262.333L332.333 369L355 346.333L377.667 323.667V218.067V112.333H343.133H308.467L286.067 133.267Z" fill="white"/>
<path d="M206.333 387L225 405.667H260.333H295.666L313.4 387.933C323 378.2 331 369.8 331 369.267C331 368.733 298.733 368.333 259.4 368.467H187.8L206.333 387Z" fill="white"/>
</svg>
